# xmcd
#
# Track frame offsets:
#	150
#	42827
#	103540
#	151991
#	201639
#	239734
#
# Disc length: 3844 seconds
# Revision: 0
# Processed by: cddbd v1.5.2PL0 Copyright (c) Steve Scherf et al.
# Submitted via: dBpowerAMP V12.0
#
DISCID=500f0206
DTITLE=Larry Crane - The Goals and Resistance Course Week 4 CD 01
DYEAR=1998
DGENRE=Speech
TTITLE0=The Goals and Resistance Course Week 4 pt 1
TTITLE1=The Goals and Resistance Course Week 4 pt 2
TTITLE2=The Goals and Resistance Course Week 4 pt 3
TTITLE3=The Goals and Resistance Course Week 4 pt 4
TTITLE4=The Goals and Resistance Course Week 4 pt 5
TTITLE5=The Goals and Resistance Course Week 4 pt 6
EXTD=
EXTT0=
EXTT1=
EXTT2=
EXTT3=
EXTT4=
EXTT5=
PLAYORDER=
